<svg width="64" height="64" viewBox="0 0 64 64" fill="none" xmlns="http://www.w3.org/2000/svg">
<g clip-path="url(#clip0_1301_801)">
<path d="M39.2565 6H24.627V15.3636H39.2565V6Z" stroke="#5F249F" stroke-width="2" stroke-linecap="round" stroke-linejoin="round"/>
<path d="M28.1387 18.2882H35.7462" stroke="#5F249F" stroke-width="2" stroke-linecap="round" stroke-linejoin="round"/>
<path d="M31.9434 15.3613V18.2881" stroke="#5F249F" stroke-width="2" stroke-linecap="round" stroke-linejoin="round"/>
<path d="M61.8854 23.4098H47.2559V32.7734H61.8854V23.4098Z" stroke="#5F249F" stroke-width="2" stroke-linecap="round" stroke-linejoin="round"/>
<path d="M50.7676 35.6978H58.3751" stroke="#5F249F" stroke-width="2" stroke-linecap="round" stroke-linejoin="round"/>
<path d="M54.5703 32.7733V35.6978" stroke="#5F249F" stroke-width="2" stroke-linecap="round" stroke-linejoin="round"/>
<path d="M16.6296 23.4098H2V32.7734H16.6296V23.4098Z" stroke="#5F249F" stroke-width="2" stroke-linecap="round" stroke-linejoin="round"/>
<path d="M5.50977 35.6978H13.1172" stroke="#5F249F" stroke-width="2" stroke-linecap="round" stroke-linejoin="round"/>
<path d="M9.31445 32.7733V35.6978" stroke="#5F249F" stroke-width="2" stroke-linecap="round" stroke-linejoin="round"/>
<path d="M54.6745 46.5926H40.0449V55.9562H54.6745V46.5926Z" stroke="#5F249F" stroke-width="2" stroke-linecap="round" stroke-linejoin="round"/>
<path d="M43.5547 58.8831H51.1621" stroke="#5F249F" stroke-width="2" stroke-linecap="round" stroke-linejoin="round"/>
<path d="M47.3574 55.9561V58.8829" stroke="#5F249F" stroke-width="2" stroke-linecap="round" stroke-linejoin="round"/>
<path d="M23.8425 46.5926H9.21289V55.9562H23.8425V46.5926Z" stroke="#5F249F" stroke-width="2" stroke-linecap="round" stroke-linejoin="round"/>
<path d="M12.7227 58.8831H20.3301" stroke="#5F249F" stroke-width="2" stroke-linecap="round" stroke-linejoin="round"/>
<path d="M16.5254 55.9561V58.8829" stroke="#5F249F" stroke-width="2" stroke-linecap="round" stroke-linejoin="round"/>
<path d="M31.7821 39.7609C34.9238 39.7609 37.4705 37.2141 37.4705 34.0725C37.4705 30.9309 34.9238 28.3841 31.7821 28.3841C28.6405 28.3841 26.0938 30.9309 26.0938 34.0725C26.0938 37.2141 28.6405 39.7609 31.7821 39.7609Z" stroke="#5F249F" stroke-width="2" stroke-linecap="round" stroke-linejoin="round"/>
<path d="M31.7832 28.384V21.8394" stroke="#5F249F" stroke-width="2" stroke-linecap="round" stroke-linejoin="round"/>
<path d="M26.0132 32.8098L19.9414 31.2007" stroke="#5F249F" stroke-width="2" stroke-linecap="round" stroke-linejoin="round"/>
<path d="M28.4902 38.9825L25.2695 43.8124" stroke="#5F249F" stroke-width="2" stroke-linecap="round" stroke-linejoin="round"/>
<path d="M35.1816 39.1065L38.6502 43.6884" stroke="#5F249F" stroke-width="2" stroke-linecap="round" stroke-linejoin="round"/>
<path d="M37.5352 32.8098L43.6046 31.2007" stroke="#5F249F" stroke-width="2" stroke-linecap="round" stroke-linejoin="round"/>
</g>
<defs>
<clipPath id="clip0_1301_801">
<rect width="64" height="64" fill="white"/>
</clipPath>
</defs>
</svg>
